<?xml version="1.0" encoding="UTF-8" standalone="no"?>
<svg
   xmlns:dc="http://purl.org/dc/elements/1.1/"
   xmlns:cc="http://creativecommons.org/ns#"
   xmlns:rdf="http://www.w3.org/1999/02/22-rdf-syntax-ns#"
   xmlns:svg="http://www.w3.org/2000/svg"
   xmlns="http://www.w3.org/2000/svg"
   xmlns:sodipodi="http://sodipodi.sourceforge.net/DTD/sodipodi-0.dtd"
   xmlns:inkscape="http://www.inkscape.org/namespaces/inkscape"
   id="Capa_1"
   enable-background="new 0 0 512 512"
   height="512"
   viewBox="0 0 512 512"
   width="512"
   version="1.1"
   sodipodi:docname="pdf.svg"
   inkscape:version="0.92.1 r15371">
  <metadata
     id="metadata21">
    <rdf:RDF>
      <cc:Work
         rdf:about="">
        <dc:format>image/svg+xml</dc:format>
        <dc:type
           rdf:resource="http://purl.org/dc/dcmitype/StillImage" />
      </cc:Work>
    </rdf:RDF>
  </metadata>
  <defs
     id="defs19" />
  <sodipodi:namedview
     pagecolor="#ffffff"
     bordercolor="#666666"
     borderopacity="1"
     objecttolerance="10"
     gridtolerance="10"
     guidetolerance="10"
     inkscape:pageopacity="0"
     inkscape:pageshadow="2"
     inkscape:window-width="640"
     inkscape:window-height="480"
     id="namedview17"
     showgrid="false"
     inkscape:zoom="0.4609375"
     inkscape:cx="256"
     inkscape:cy="256"
     inkscape:window-x="0"
     inkscape:window-y="0"
     inkscape:window-maximized="0"
     inkscape:current-layer="Capa_1" />
  <g
     id="g14"
     style="fill:#ffffff">
    <path
       d="m452.914 251.017c4.142 0 7.5-3.357 7.5-7.5v-117.845c0-4.667-1.815-9.056-5.109-12.357l-107.876-108.173c-3.308-3.316-7.708-5.142-12.391-5.142h-140.646c-4.142 0-7.5 3.357-7.5 7.5s3.358 7.5 7.5 7.5h137.297v29.074h-265.103v-21.574c0-4.136 3.364-7.5 7.5-7.5h85.306c4.142 0 7.5-3.357 7.5-7.5s-3.358-7.5-7.5-7.5h-85.306c-12.407 0-22.5 10.094-22.5 22.5v467c0 12.406 10.093 22.5 22.5 22.5h363.828c12.407 0 22.5-10.094 22.5-22.5v-210.983c0-4.143-3.358-7.5-7.5-7.5s-7.5 3.357-7.5 7.5v210.983c0 4.136-3.364 7.5-7.5 7.5h-363.828c-4.136 0-7.5-3.364-7.5-7.5v-20.5h73.262c4.142 0 7.5-3.357 7.5-7.5s-3.358-7.5-7.5-7.5h-73.262v-109h240.914c1.378 0 2.5 1.121 2.5 2.5v104c0 1.379-1.122 2.5-2.5 2.5h-131.691c-4.142 0-7.5 3.357-7.5 7.5s3.358 7.5 7.5 7.5h131.691c9.649 0 17.5-7.851 17.5-17.5v-104c0-9.649-7.851-17.5-17.5-17.5h-240.914v-270.926h265.103v47.469c0 12.406 10.093 22.5 22.5 22.5h91.226v114.474c-.001 4.142 3.357 7.5 7.499 7.5zm-106.226-144.474v-80.902l88.159 88.402h-80.659c-4.135 0-7.5-3.364-7.5-7.5z"
       id="path2"
       style="fill:#ffffff" />
    <path
       d="m277.305 371.302c4.142 0 7.5-3.357 7.5-7.5s-3.358-7.5-7.5-7.5h-28.937c-4.142 0-7.5 3.357-7.5 7.5v71.396c0 4.143 3.358 7.5 7.5 7.5s7.5-3.357 7.5-7.5v-28.874h19.138c4.142 0 7.5-3.357 7.5-7.5s-3.358-7.5-7.5-7.5h-19.138v-20.022z"
       id="path4"
       style="fill:#ffffff" />
    <path
       d="m162.916 433.264c0 3.658 2.162 8.634 7.669 8.634.597 0 14.684-.056 20.307-.154 20.267-.354 34.976-18.12 34.976-42.243 0-25.359-14.341-42.397-35.686-42.397h-19.767c-3.178 0-7.5 2.401-7.5 7.572v68.588zm27.267-61.161c15.251 0 20.686 14.152 20.686 27.397 0 12.952-6.333 27.002-20.238 27.245-2.875.051-8.166.09-12.599.115-.027-8.241-.087-46.191-.102-54.758h12.253z"
       id="path6"
       style="fill:#ffffff" />
    <path
       d="m99.695 356.039c-3.703-.076-7.647 3.271-7.5 7.5v71.922c0 4.143 3.358 7.5 7.5 7.5s7.5-3.357 7.5-7.5v-23.781c4.379-.023 9.638-.048 12.526-.048 15.546 0 28.194-12.47 28.194-27.797s-12.648-27.796-28.194-27.796zm33.221 27.796c0 6.937-6.042 12.797-13.194 12.797-2.867 0-8.062.023-12.429.047-.023-4.499-.062-20.938-.075-25.64h12.504c7.151 0 13.194 5.859 13.194 12.796z"
       id="path8"
       style="fill:#ffffff" />
    <path
       d="m187.669 260.48c-10.102-13.926-15.658-30.341-16.066-47.469-.099-4.141-3.553-7.377-7.677-7.319-4.141.099-7.418 3.536-7.319 7.677.482 20.184 7.024 39.52 18.921 55.919 15.592 21.495 38.622 35.632 64.846 39.806 5.292.843 10.582 1.259 15.838 1.259 20.793-.001 41.004-6.52 58.162-18.965 21.495-15.593 35.632-38.622 39.806-64.847s-2.115-52.505-17.707-73.999c-15.592-21.495-38.622-35.632-64.846-39.806-26.227-4.179-52.505 2.114-74 17.706-15.627 11.335-27.527 26.812-34.417 44.759-1.484 3.866.447 8.205 4.314 9.689 3.868 1.48 8.206-.447 9.69-4.314 5.846-15.229 15.95-28.366 29.22-37.991 18.252-13.24 40.567-18.58 62.834-15.035 22.268 3.544 41.822 15.548 55.062 33.8 13.24 18.251 18.579 40.566 15.035 62.834s-15.548 41.822-33.8 55.062c-18.251 13.24-40.567 18.579-62.834 15.035-22.267-3.545-41.822-15.549-55.062-33.801z"
       id="path10"
       style="fill:#ffffff" />
    <path
       d="m272.681 155.892h-33.361c-6.341 0-11.5 5.159-11.5 11.5v52.012h-10.597c-4.262 0-8.07 2.545-9.701 6.482s-.737 8.429 2.276 11.442l36.656 36.655c2.55 2.551 5.94 3.955 9.546 3.955s6.997-1.404 9.546-3.954l36.656-36.656c3.014-3.013 3.908-7.505 2.277-11.442s-5.438-6.482-9.701-6.482h-10.597v-52.012c0-6.341-5.159-11.5-11.5-11.5zm-16.681 106.424-27.914-27.913h7.233c4.142 0 7.5-3.357 7.5-7.5v-56.012h26.361v56.012c0 4.143 3.358 7.5 7.5 7.5h7.233z"
       id="path12"
       style="fill:#ffffff" />
  </g>
</svg>
