<?xml version="1.0" encoding="UTF-8" standalone="no"?>
<!-- Generator: Adobe Illustrator 18.1.1, SVG Export Plug-In . SVG Version: 6.00 Build 0)  -->

<svg
   version="1.1"
   id="Capa_1"
   x="0px"
   y="0px"
   viewBox="0 0 512 512"
   xml:space="preserve"
   sodipodi:docname="music.svg"
   inkscape:version="1.3.2 (091e20e, 2023-11-25, custom)"
   width="512"
   height="512"
   xmlns:inkscape="http://www.inkscape.org/namespaces/inkscape"
   xmlns:sodipodi="http://sodipodi.sourceforge.net/DTD/sodipodi-0.dtd"
   xmlns="http://www.w3.org/2000/svg"
   xmlns:svg="http://www.w3.org/2000/svg"><defs
   id="defs42">
		
		
	</defs><sodipodi:namedview
   id="namedview40"
   pagecolor="#ffffff"
   bordercolor="#eeeeee"
   borderopacity="1"
   inkscape:pageshadow="0"
   inkscape:pageopacity="0"
   inkscape:pagecheckerboard="0"
   showgrid="false"
   inkscape:zoom="1.3578431"
   inkscape:cx="229.03971"
   inkscape:cy="224.25271"
   inkscape:window-width="1920"
   inkscape:window-height="1017"
   inkscape:window-x="-8"
   inkscape:window-y="-8"
   inkscape:window-maximized="1"
   inkscape:current-layer="g7"
   inkscape:showpageshadow="2"
   inkscape:deskcolor="#d1d1d1" />
<g
   id="g7">
	<g
   id="g1"
   transform="matrix(0.99997655,0,0,0.99997655,0.0060056,0.0060056)"><path
     d="M 256,5.9941352 C 117.92568,5.9941352 5.9941352,117.92568 5.9941352,256 5.9941352,394.07432 117.92568,506.00586 256,506.00586 394.07432,506.00586 506.00586,394.07432 506.00586,256 506.00586,117.92568 394.07432,5.9941352 256,5.9941352 Z m 17.4759,21.0748408 c -3.7795,49.517501 -7.559,99.034184 -11.34014,148.551684 -4.70599,-0.35948 -9.35397,-0.30801 -14.05098,0.15524 -4.87593,-49.42192 -9.75186,-98.842192 -14.62779,-148.263286 13.37613,-1.320293 26.61582,-1.467355 40.01891,-0.443638 z m -59.84699,3.277855 c 9.16443,48.808334 18.32968,97.615849 27.49492,146.424189 -15.95952,2.9968 -30.64287,10.74453 -42.12517,22.22683 C 163.88183,163.88183 128.76662,128.76662 93.650603,93.650603 126.35398,60.946405 168.17278,38.881345 213.62891,30.346831 Z M 195.79434,256 c 0,-33.25078 26.95488,-60.20566 60.20566,-60.20566 33.25078,0 60.20566,26.95488 60.20566,60.20566 0,33.25078 -26.95488,60.20566 -60.20566,60.20566 -33.25078,0 -60.20566,-26.95488 -60.20566,-60.20566 z m 42.72976,228.93102 c 3.7795,-49.5175 7.559,-99.03418 11.34014,-148.55168 4.70599,0.35948 9.35397,0.30801 14.05098,-0.15524 4.87593,49.42192 9.75186,98.84219 14.62779,148.26329 -13.37613,1.32029 -26.61582,1.46735 -40.01891,0.44363 z m 59.84699,-3.27785 c -9.16443,-48.80834 -18.32968,-97.61585 -27.49411,-146.42419 15.95953,-2.9968 30.64288,-10.74371 42.12517,-22.22683 35.11602,35.11602 70.23123,70.23123 105.34725,105.34725 -32.70338,32.7042 -74.52218,54.76926 -119.97831,63.30377 z"
     id="path2"
     style="fill:#d4d4d4;fill-opacity:1;stroke-width:0.817013" /><circle
     cx="256"
     cy="256"
     r="39.796684"
     id="circle4"
     style="fill:#d4d4d4;fill-opacity:1;stroke-width:0.817013" /></g>
</g>
<g
   id="g9">
</g>
<g
   id="g11">
</g>
<g
   id="g13">
</g>
<g
   id="g15">
</g>
<g
   id="g17">
</g>
<g
   id="g19">
</g>
<g
   id="g21">
</g>
<g
   id="g23">
</g>
<g
   id="g25">
</g>
<g
   id="g27">
</g>
<g
   id="g29">
</g>
<g
   id="g31">
</g>
<g
   id="g33">
</g>
<g
   id="g35">
</g>
<g
   id="g37">
</g>
</svg>
