<?xml version="1.0" encoding="UTF-8" standalone="no"?>
<svg
   id="Calque_1"
   viewBox="0 0 43.020691 43.459278"
   version="1.1"
   sodipodi:docname="helloasso.svg"
   width="43.020691"
   height="43.459278"
   inkscape:version="1.4 (86a8ad7, 2024-10-11)"
   xmlns:inkscape="http://www.inkscape.org/namespaces/inkscape"
   xmlns:sodipodi="http://sodipodi.sourceforge.net/DTD/sodipodi-0.dtd"
   xmlns="http://www.w3.org/2000/svg"
   xmlns:svg="http://www.w3.org/2000/svg">
  <defs
     id="defs6" />
  <sodipodi:namedview
     id="namedview6"
     pagecolor="#ffffff"
     bordercolor="#000000"
     borderopacity="0.25"
     inkscape:showpageshadow="2"
     inkscape:pageopacity="0.0"
     inkscape:pagecheckerboard="0"
     inkscape:deskcolor="#d1d1d1"
     inkscape:zoom="3.2208714"
     inkscape:cx="68.459734"
     inkscape:cy="18.783737"
     inkscape:window-width="1920"
     inkscape:window-height="1009"
     inkscape:window-x="-8"
     inkscape:window-y="-8"
     inkscape:window-maximized="1"
     inkscape:current-layer="Calque_1" />
  <style
     id="style1">
    .st0{fill:#2e2f5e}
  </style>
  <linearGradient
     id="SVGID_1_"
     x1="4.322"
     x2="24.268"
     y1="33.651001"
     y2="-0.50300002"
     gradientTransform="matrix(1,0,0,-1,0,44.736)"
     gradientUnits="userSpaceOnUse">
    <stop
       offset="0"
       stop-color="#498a63"
       id="stop1" />
    <stop
       offset=".25"
       stop-color="#61b984"
       id="stop2" />
  </linearGradient>
  <linearGradient
     id="SVGID_2_"
     x1="19.889"
     x2="40.523998"
     y1="3.6270001"
     y2="36.696999"
     gradientTransform="matrix(1,0,0,-1,0,44.736)"
     gradientUnits="userSpaceOnUse">
    <stop
       offset="0"
       stop-color="#89356d"
       id="stop3" />
    <stop
       offset=".21"
       stop-color="#b94794"
       id="stop4" />
  </linearGradient>
  <linearGradient
     id="SVGID_3_"
     x1="3.2420001"
     x2="37.688999"
     y1="35.782001"
     y2="23.384001"
     gradientTransform="matrix(1,0,0,-1,0,44.736)"
     gradientUnits="userSpaceOnUse">
    <stop
       offset=".6"
       stop-color="#f59c1c"
       id="stop5" />
    <stop
       offset="1"
       stop-color="#c7702b"
       id="stop6" />
  </linearGradient>
  <g
     id="g6"
     transform="translate(-0.01090745,-0.0140205)">
    <path
       fill="url(#SVGID_1_)"
       d="M 12.9,34.9 C 6.3,27.3 10.7,8.1 13.5,8.1 8.1,7.9 -1.1,11.5 0.2,24.4 c 1.5,12 12.3,20.4 24.1,18.9 3.8,-0.5 7.3,-2 10.3,-4.3 -10.4,7.5 -17.4,0.8 -21.7,-4.1 z"
       id="path2"
       style="fill:url(#SVGID_1_)" />
    <path
       fill="url(#SVGID_2_)"
       d="M 37.2,21.9 C 31.7,33 14.8,37.7 12.9,34.8 c 3.3,4.9 11.5,11.6 21.8,4 9.4,-7.3 11.1,-21 3.8,-30.5 -2.3,-3 -5.4,-5.3 -8.9,-6.8 11.7,5.3 10.5,14.6 7.6,20.4 z"
       id="path4"
       style="fill:url(#SVGID_2_)" />
    <path
       fill="url(#SVGID_3_)"
       d="M 13.5,8.1 C 25.4,6.8 38.9,19.1 37.2,22 40.5,16.2 41.3,6.9 29.7,1.6 18.6,-2.9 6,2.5 1.6,13.7 0.2,17.2 -0.3,21 0.2,24.7 -0.6,11.9 9.1,8.5 13.5,8.1 Z"
       id="path6"
       style="fill:url(#SVGID_3_)" />
  </g>
</svg>
