<?xml version="1.0" encoding="UTF-8" standalone="no"?>
<!-- Generator: Adobe Illustrator 18.1.1, SVG Export Plug-In . SVG Version: 6.00 Build 0)  -->

<svg
   version="1.1"
   id="Capa_1"
   x="0px"
   y="0px"
   viewBox="0 0 612 612"
   style="enable-background:new 0 0 612 612;"
   xml:space="preserve"
   sodipodi:docname="music.svg"
   inkscape:version="1.1.2 (b8e25be833, 2022-02-05)"
   xmlns:inkscape="http://www.inkscape.org/namespaces/inkscape"
   xmlns:sodipodi="http://sodipodi.sourceforge.net/DTD/sodipodi-0.dtd"
   xmlns="http://www.w3.org/2000/svg"
   xmlns:svg="http://www.w3.org/2000/svg"><defs
   id="defs42" /><sodipodi:namedview
   id="namedview40"
   pagecolor="#505050"
   bordercolor="#eeeeee"
   borderopacity="1"
   inkscape:pageshadow="0"
   inkscape:pageopacity="0"
   inkscape:pagecheckerboard="0"
   showgrid="false"
   inkscape:zoom="0.67892157"
   inkscape:cx="177.48736"
   inkscape:cy="231.2491"
   inkscape:window-width="1920"
   inkscape:window-height="1017"
   inkscape:window-x="-8"
   inkscape:window-y="-8"
   inkscape:window-maximized="1"
   inkscape:current-layer="g7" />
<g
   id="g7">
	<g
   id="CD"
   style="fill:#d4d4d4;fill-opacity:1.0">
		<path
   d="M306,0C137.001,0,0,137.001,0,306s137.001,306,306,306s306-137.001,306-306S474.999,0,306,0z M327.39,25.795    c-4.626,60.608-9.252,121.215-13.88,181.823c-5.76-0.44-11.449-0.377-17.198,0.19c-5.968-60.491-11.936-120.98-17.904-181.47    C294.78,24.722,310.985,24.542,327.39,25.795z M254.139,29.807c11.217,59.74,22.435,119.479,33.653,179.219    c-19.534,3.668-37.506,13.151-51.56,27.205C193.25,193.25,150.27,150.27,107.289,107.289    C147.317,67.26,198.502,40.253,254.139,29.807z M232.31,306c0-40.698,32.992-73.69,73.69-73.69s73.69,32.992,73.69,73.69    s-32.992,73.69-73.69,73.69S232.31,346.698,232.31,306z M284.61,586.205c4.626-60.608,9.252-121.215,13.88-181.823    c5.76,0.44,11.449,0.377,17.198-0.19c5.968,60.491,11.936,120.98,17.904,181.47C317.22,587.278,301.015,587.458,284.61,586.205z     M357.861,582.193c-11.217-59.74-22.435-119.479-33.652-179.219c19.534-3.668,37.506-13.15,51.56-27.205    c42.981,42.981,85.961,85.961,128.942,128.942C464.683,544.74,413.498,571.747,357.861,582.193z"
   id="path2"
   style="fill:#d4d4d4;fill-opacity:1.0" />
		<circle
   cx="306"
   cy="306"
   r="48.71"
   id="circle4"
   style="fill:#d4d4d4;fill-opacity:1.0" />
	</g>
</g>
<g
   id="g9">
</g>
<g
   id="g11">
</g>
<g
   id="g13">
</g>
<g
   id="g15">
</g>
<g
   id="g17">
</g>
<g
   id="g19">
</g>
<g
   id="g21">
</g>
<g
   id="g23">
</g>
<g
   id="g25">
</g>
<g
   id="g27">
</g>
<g
   id="g29">
</g>
<g
   id="g31">
</g>
<g
   id="g33">
</g>
<g
   id="g35">
</g>
<g
   id="g37">
</g>
</svg>
