<?xml version="1.0" encoding="UTF-8" standalone="no"?>
<!-- Uploaded to: SVG Repo, www.svgrepo.com, Generator: SVG Repo Mixer Tools -->

<svg
   width="512"
   height="512"
   viewBox="0 0 15.36 15.36"
   fill="none"
   version="1.1"
   id="svg2"
   sodipodi:docname="photo-svgrepo-com.svg"
   inkscape:version="1.3.2 (091e20e, 2023-11-25, custom)"
   xmlns:inkscape="http://www.inkscape.org/namespaces/inkscape"
   xmlns:sodipodi="http://sodipodi.sourceforge.net/DTD/sodipodi-0.dtd"
   xmlns="http://www.w3.org/2000/svg"
   xmlns:svg="http://www.w3.org/2000/svg">
  <defs
     id="defs2" />
  <sodipodi:namedview
     id="namedview2"
     pagecolor="#ffffff"
     bordercolor="#666666"
     borderopacity="1.0"
     inkscape:showpageshadow="2"
     inkscape:pageopacity="0.0"
     inkscape:pagecheckerboard="0"
     inkscape:deskcolor="#d1d1d1"
     inkscape:zoom="0.72566833"
     inkscape:cx="115.75536"
     inkscape:cy="415.47906"
     inkscape:window-width="1920"
     inkscape:window-height="1017"
     inkscape:window-x="-8"
     inkscape:window-y="-8"
     inkscape:window-maximized="1"
     inkscape:current-layer="svg2" />
  <g
     id="g2"
     transform="matrix(1.200078,0,0,1.200078,-1.3202681,-1.3201556)">
    <path
       fill-rule="evenodd"
       clip-rule="evenodd"
       d="M 13.749344,8.5294053 V 5.6097322 c 0,-0.7831689 -0.04112,-1.4551681 -0.16593,-2.016685 C 13.457045,3.0244368 13.236743,2.5315354 12.852261,2.1470412 12.46778,1.7625471 11.974866,1.5422514 11.406205,1.4158824 10.844732,1.2910884 10.172702,1.2499403 9.3895517,1.2499403 H 5.6097322 c -0.7831689,0 -1.4551681,0.041148 -2.016685,0.1659421 C 3.0244368,1.5422514 2.5315354,1.7625471 2.1470412,2.1470412 1.7625471,2.5315354 1.5422514,3.0244368 1.4158824,3.5930472 1.2910884,4.1545641 1.2499403,4.8265633 1.2499403,5.6097322 v 3.7798195 c 0,0.7831503 0.041148,1.4551803 0.1659421,2.0166533 0.126369,0.568661 0.3466647,1.061575 0.7311588,1.446056 0.3844942,0.384482 0.8773956,0.604784 1.446006,0.731153 0.5615169,0.124806 1.2335161,0.16593 2.016685,0.16593 h 3.7798195 c 0.7831503,0 1.4551803,-0.04112 2.0166533,-0.16593 0.568661,-0.126369 1.061575,-0.346671 1.446056,-0.731153 0.384482,-0.384481 0.604784,-0.877395 0.731153,-1.446056 0.124806,-0.561473 0.16593,-1.233503 0.16593,-2.0166533 V 8.5584664 c 2.5e-4,-0.00969 2.5e-4,-0.019374 0,-0.029061 z M 2.6360491,3.8642217 C 2.5411287,4.2913264 2.4998806,4.8550869 2.4998806,5.6097322 V 6.9346689 C 2.9497779,6.5020646 3.3685954,6.1481314 3.7741635,5.89005 4.2655901,5.57734 4.7698973,5.3845804 5.3136525,5.3845804 c 0.5437553,0 1.0480438,0.1927596 1.5395203,0.5054696 0.4852893,0.3088103 0.9895152,0.7548827 1.5433013,1.3086688 l 1.015764,1.015764 C 10.026771,7.707882 10.629367,7.3580862 11.277962,7.2772775 c 0.427229,-0.053247 0.830147,0.014437 1.221441,0.1722418 V 5.6097322 c 0,-0.7546453 -0.04125,-1.3184058 -0.136181,-1.7455105 C 12.269914,3.4442168 12.133171,3.1956412 11.968429,3.0308803 11.803624,2.8661257 11.555073,2.7293947 11.135031,2.6360491 10.707989,2.5411287 10.144203,2.4998806 9.3895517,2.4998806 H 5.6097322 c -0.7546453,0 -1.3184058,0.041248 -1.7455105,0.1361685 C 3.4442168,2.7293947 3.1956412,2.8661257 3.0308803,3.0308803 2.8661257,3.1956412 2.7293947,3.4442168 2.6360491,3.8642217 Z"
       fill="#323232"
       id="path1"
       style="fill:#d4d4d4;fill-opacity:1;stroke-width:0.62497" />
    <path
       fill-rule="evenodd"
       clip-rule="evenodd"
       d="m 8.7495822,4.9997613 c 0,-0.6903233 0.5595983,-1.2499403 1.2499404,-1.2499403 0.6903424,0 1.2499404,0.559617 1.2499404,1.2499403 0,0.6903233 -0.559598,1.2499403 -1.2499404,1.2499403 -0.6903421,0 -1.2499404,-0.559617 -1.2499404,-1.2499403 z"
       fill="#323232"
       id="path2"
       style="fill:#d4d4d4;fill-opacity:1;stroke-width:0.62497" />
  </g>
</svg>
