<?xml version="1.0" encoding="UTF-8" standalone="no"?>
<!-- Generator: Adobe Illustrator 18.0.0, SVG Export Plug-In . SVG Version: 6.00 Build 0)  -->

<svg
   version="1.1"
   id="Capa_1"
   x="0px"
   y="0px"
   viewBox="0 0 483.674 483.674"
   style="enable-background:new 0 0 483.674 483.674;"
   xml:space="preserve"
   sodipodi:docname="photo.svg"
   inkscape:version="1.1.2 (b8e25be833, 2022-02-05)"
   xmlns:inkscape="http://www.inkscape.org/namespaces/inkscape"
   xmlns:sodipodi="http://sodipodi.sourceforge.net/DTD/sodipodi-0.dtd"
   xmlns="http://www.w3.org/2000/svg"
   xmlns:svg="http://www.w3.org/2000/svg"><defs
   id="defs38" /><sodipodi:namedview
   id="namedview36"
   pagecolor="#ffffff"
   bordercolor="#666666"
   borderopacity="1.0"
   inkscape:pageshadow="2"
   inkscape:pageopacity="0.0"
   inkscape:pagecheckerboard="0"
   showgrid="false"
   inkscape:zoom="1.7180993"
   inkscape:cx="241.83701"
   inkscape:cy="242.12802"
   inkscape:window-width="1920"
   inkscape:window-height="1017"
   inkscape:window-x="-8"
   inkscape:window-y="-8"
   inkscape:window-maximized="1"
   inkscape:current-layer="Capa_1" />
<g
   id="XMLID_119_"
   style="fill:#d4d4d4;fill-opacity:1.0">
	<path
   id="XMLID_123_"
   d="M452.183,135.824h-33.798l-5.936-45.784c-3.573-27.664-27.305-48.519-55.208-48.519h-73.617   c-27.9,0-51.624,20.855-55.206,48.51l-5.928,45.793h-71.678v-22.121c0-9.769-7.917-17.681-17.677-17.681H76.471   c-9.759,0-17.685,7.913-17.685,17.681v22.121H31.489c-17.401,0-31.489,14.1-31.489,31.49v243.35c0,17.39,14.088,31.49,31.489,31.49   h420.693c17.404,0,31.491-14.1,31.491-31.49v-243.35C483.674,149.923,469.587,135.824,452.183,135.824z M239.819,420.905   c-70.898,0-128.385-57.484-128.385-128.391c0-63.647,46.373-116.336,107.133-126.483c6.928-1.157,13.996-1.904,21.252-1.904   c31.147,0,59.691,11.107,81.924,29.551c28.388,23.546,46.474,59.082,46.474,98.836C368.217,363.42,310.719,420.905,239.819,420.905   z M271.25,135.824l5.131-39.582c0.474-3.623,3.587-6.353,7.242-6.353h73.617c3.655,0,6.777,2.73,7.244,6.361l5.139,39.573H271.25z    M415.404,232.56c-15.73,0-28.461-12.746-28.461-28.467c0-3.685,0.748-7.18,2.031-10.415c4.154-10.556,14.389-18.05,26.43-18.05   c2.912,0,5.67,0.566,8.334,1.375c11.633,3.583,20.134,14.281,20.134,27.09C443.872,219.813,431.133,232.56,415.404,232.56z"
   style="fill:#d4d4d4;fill-opacity:1.0" />
	<path
   id="XMLID_120_"
   d="M239.819,197.929c-52.161,0-94.595,42.434-94.595,94.585c0,52.155,42.433,94.588,94.595,94.588   c52.165,0,94.597-42.433,94.597-94.588C334.416,240.362,291.984,197.929,239.819,197.929z M239.819,354.857   c-34.384,0-62.345-27.963-62.345-62.343c0-34.377,27.961-62.34,62.345-62.34c34.388,0,62.35,27.963,62.35,62.34   C302.169,326.894,274.207,354.857,239.819,354.857z"
   style="fill:#d4d4d4;fill-opacity:1.0" />
</g>
<g
   id="g5">
</g>
<g
   id="g7">
</g>
<g
   id="g9">
</g>
<g
   id="g11">
</g>
<g
   id="g13">
</g>
<g
   id="g15">
</g>
<g
   id="g17">
</g>
<g
   id="g19">
</g>
<g
   id="g21">
</g>
<g
   id="g23">
</g>
<g
   id="g25">
</g>
<g
   id="g27">
</g>
<g
   id="g29">
</g>
<g
   id="g31">
</g>
<g
   id="g33">
</g>
</svg>
