<?xml version="1.0" encoding="UTF-8" standalone="no"?>
<!-- Uploaded to: SVG Repo, www.svgrepo.com, Generator: SVG Repo Mixer Tools -->

<svg
   fill="#000000"
   width="512"
   height="512"
   viewBox="0 0 20.48 20.48"
   style="clip-rule:evenodd;fill-rule:evenodd;stroke-linejoin:round;stroke-miterlimit:2"
   version="1.1"
   xml:space="preserve"
   id="svg1"
   sodipodi:docname="podcast.svg"
   inkscape:version="1.3.2 (091e20e, 2023-11-25, custom)"
   xmlns:inkscape="http://www.inkscape.org/namespaces/inkscape"
   xmlns:sodipodi="http://sodipodi.sourceforge.net/DTD/sodipodi-0.dtd"
   xmlns="http://www.w3.org/2000/svg"
   xmlns:svg="http://www.w3.org/2000/svg"><defs
   id="defs1" /><sodipodi:namedview
   id="namedview1"
   pagecolor="#ffffff"
   bordercolor="#666666"
   borderopacity="1.0"
   inkscape:showpageshadow="2"
   inkscape:pageopacity="0.0"
   inkscape:pagecheckerboard="0"
   inkscape:deskcolor="#d1d1d1"
   inkscape:zoom="0.70710678"
   inkscape:cx="42.426407"
   inkscape:cy="490.025"
   inkscape:window-width="1920"
   inkscape:window-height="1017"
   inkscape:window-x="-8"
   inkscape:window-y="-8"
   inkscape:window-maximized="1"
   inkscape:current-layer="svg1" />

<g
   id="Layer1"
   style="fill:#d4d4d4;fill-opacity:1"
   transform="matrix(0.71423387,0,0,0.71423387,-1.1877419,-1.1877419)">

<path
   d="M 30,3 C 30,2.448 29.552,2 29,2 H 3 C 2.448,2 2,2.448 2,3 v 26 c 0,0.552 0.448,1 1,1 h 26 c 0.552,0 1,-0.448 1,-1 z M 17,26 V 6 C 17,5.448 16.552,5 16,5 15.448,5 15,5.448 15,6 v 20 c 0,0.552 0.448,1 1,1 0.552,0 1,-0.448 1,-1 z M 14,22.154 V 9.846 c 0,-0.552 -0.448,-1 -1,-1 -0.552,0 -1,0.448 -1,1 v 12.308 c 0,0.552 0.448,1 1,1 0.552,0 1,-0.448 1,-1 z m 6,0 V 9.846 c 0,-0.552 -0.448,-1 -1,-1 -0.552,0 -1,0.448 -1,1 v 12.308 c 0,0.552 0.448,1 1,1 0.552,0 1,-0.448 1,-1 z m 3,-2.308 v -7.692 c 0,-0.552 -0.448,-1 -1,-1 -0.552,0 -1,0.448 -1,1 v 7.692 c 0,0.552 0.448,1 1,1 0.552,0 1,-0.448 1,-1 z m -12,0 v -7.692 c 0,-0.552 -0.448,-1 -1,-1 -0.552,0 -1,0.448 -1,1 v 7.692 c 0,0.552 0.448,1 1,1 0.552,0 1,-0.448 1,-1 z M 8,18.308 v -4.616 c 0,-0.552 -0.448,-1 -1,-1 -0.552,0 -1,0.448 -1,1 v 4.616 c 0,0.552 0.448,1 1,1 0.552,0 1,-0.448 1,-1 z m 18,0 v -4.616 c 0,-0.552 -0.448,-1 -1,-1 -0.552,0 -1,0.448 -1,1 v 4.616 c 0,0.552 0.448,1 1,1 0.552,0 1,-0.448 1,-1 z"
   id="path1"
   style="fill:#d4d4d4;fill-opacity:1" />

</g>

</svg>
