<?xml version="1.0" encoding="UTF-8" standalone="no"?>
<!-- Created with Inkscape (http://www.inkscape.org/) -->

<svg
   width="270.93332mm"
   height="270.93332mm"
   viewBox="0 0 270.93332 270.93332"
   version="1.1"
   id="svg1"
   xml:space="preserve"
   inkscape:version="1.4 (86a8ad7, 2024-10-11)"
   sodipodi:docname="shotgun.svg"
   xmlns:inkscape="http://www.inkscape.org/namespaces/inkscape"
   xmlns:sodipodi="http://sodipodi.sourceforge.net/DTD/sodipodi-0.dtd"
   xmlns="http://www.w3.org/2000/svg"
   xmlns:svg="http://www.w3.org/2000/svg"><sodipodi:namedview
     id="namedview1"
     pagecolor="#ffffff"
     bordercolor="#000000"
     borderopacity="0.25"
     inkscape:showpageshadow="2"
     inkscape:pageopacity="0.0"
     inkscape:pagecheckerboard="0"
     inkscape:deskcolor="#d1d1d1"
     inkscape:document-units="mm"
     inkscape:zoom="0.39420244"
     inkscape:cx="563.16242"
     inkscape:cy="564.4308"
     inkscape:window-width="1920"
     inkscape:window-height="1129"
     inkscape:window-x="949"
     inkscape:window-y="1072"
     inkscape:window-maximized="1"
     inkscape:current-layer="layer1" /><defs
     id="defs1" /><g
     inkscape:label="Layer 1"
     inkscape:groupmode="layer"
     id="layer1"
     transform="translate(28.283259,-11.100857)"><path
       style="fill:#5e4a81;fill-opacity:1"
       d="M -28.283259,146.56752 V 11.100857 H 107.18341 242.65007 V 146.56752 282.03418 H 107.18341 -28.283259 Z m 176.690539,74.03847 c 7.93173,-2.89786 11.93802,-10.54078 9.05314,-17.27094 -0.28489,-0.66461 -4.6142,-7.13098 -9.62069,-14.36973 -17.10399,-24.73015 -67.876219,-98.223343 -68.040389,-98.488973 -0.10903,-0.17641 9.12838,-0.26508 27.615039,-0.26508 h 27.77887 l -9.90347,14.221353 c -5.55385,7.97532 -9.86086,14.40777 -9.80645,14.64579 0.19619,0.85827 10.81497,15.88838 11.05533,15.64801 0.80279,-0.80278 30.00441,-43.089583 30.66769,-44.409803 3.4081,-6.78362 -0.39266,-14.57416 -8.68404,-17.79994 l -1.7837,-0.69395 -38.69805,-0.0713 c -43.030769,-0.0793 -40.422089,-0.18082 -44.086549,1.71623 -2.29848,1.1899 -5.3103,4.11314 -6.31496,6.12924 -0.38667,0.77593 -0.89817,2.28791 -1.13668,3.35996 -0.54698,2.4586 -0.21429,4.81283 1.02243,7.23506 0.46364,0.90808 18.04751,26.535143 39.07527,56.949023 21.027759,30.41389 38.271979,55.40706 38.320489,55.54039 0.0531,0.14586 -10.93424,0.24242 -27.58281,0.24242 -15.219059,0 -27.671009,-0.0725 -27.671009,-0.16119 0,-0.13394 9.15562,-13.42178 17.28739,-25.08972 l 2.01666,-2.89363 -0.45775,-0.71854 c -1.75391,-2.75312 -10.54819,-15.28211 -10.69792,-15.24105 -0.21808,0.0598 -29.03429,41.56988 -30.04343,43.27788 -0.85672,1.45005 -1.65385,4.27554 -1.64972,5.84761 0.013,4.94724 4.11954,10.4174 9.25867,12.33306 3.04047,1.13336 2.58173,1.1218 42.728809,1.07697 l 38.36458,-0.0429 z"
       id="path1" /></g></svg>
