<?xml version="1.0" encoding="UTF-8" standalone="no"?>
<svg
   width="512"
   height="512"
   viewBox="0 0 512 512"
   class="icon"
   version="1.1"
   id="svg4"
   sodipodi:docname="software.svg"
   inkscape:version="1.3.2 (091e20e, 2023-11-25, custom)"
   xmlns:inkscape="http://www.inkscape.org/namespaces/inkscape"
   xmlns:sodipodi="http://sodipodi.sourceforge.net/DTD/sodipodi-0.dtd"
   xmlns="http://www.w3.org/2000/svg"
   xmlns:svg="http://www.w3.org/2000/svg">
  <defs
     id="defs8" />
  <sodipodi:namedview
     id="namedview6"
     pagecolor="#ffffff"
     bordercolor="#666666"
     borderopacity="1.0"
     inkscape:pageshadow="2"
     inkscape:pageopacity="0.0"
     inkscape:pagecheckerboard="0"
     showgrid="false"
     inkscape:zoom="1"
     inkscape:cx="299"
     inkscape:cy="142.5"
     inkscape:window-width="1920"
     inkscape:window-height="1017"
     inkscape:window-x="-8"
     inkscape:window-y="-8"
     inkscape:window-maximized="1"
     inkscape:current-layer="svg4"
     inkscape:showpageshadow="2"
     inkscape:deskcolor="#d1d1d1" />
  <path
     d="M 486.0049,5.9946775 H 25.995098 c -11.062735,0 -20.0004265,8.9376915 -20.0004265,20.0004265 V 486.00489 c 0,11.06274 8.9376915,20.00043 20.0004265,20.00043 H 486.0049 c 11.06273,0 20.00043,-8.93769 20.00043,-20.00043 V 25.995104 c 0,-11.062735 -8.9377,-20.0004265 -20.00043,-20.0004265 z M 256.68751,259.81258 136.68495,360.43972 c -3.25006,2.75006 -8.18767,0.43751 -8.18767,-3.81258 V 317.4388 c 0,-1.43753 0.68752,-2.87506 1.81254,-3.81258 L 198.93628,256 130.30982,198.37377 a 4.7688516,4.7688516 0 0 1 -1.81254,-3.81259 v -39.18833 c 0,-4.25009 4.93761,-6.56264 8.18767,-3.81258 l 120.00256,100.56464 c 2.43755,2.00005 2.43755,5.68762 0,7.68767 z m 126.8152,96.81456 c 0,2.75005 -2.12504,5.00011 -4.6876,5.00011 H 263.18765 c -2.56255,0 -4.6876,-2.25006 -4.6876,-5.00011 V 326.6265 c 0,-2.75006 2.12505,-5.00011 4.6876,-5.00011 h 115.62746 c 2.56256,0 4.6876,2.25005 4.6876,5.00011 z"
     id="path2"
     style="fill:#d4d4d4;fill-opacity:1;stroke-width:0.625013" />
</svg>
