<?xml version="1.0" encoding="UTF-8" standalone="no"?>
<svg
   width="1024px"
   height="1024px"
   viewBox="0 0 1024 1024"
   class="icon"
   version="1.1"
   id="svg4"
   sodipodi:docname="soft.svg"
   inkscape:version="1.1.2 (b8e25be833, 2022-02-05)"
   xmlns:inkscape="http://www.inkscape.org/namespaces/inkscape"
   xmlns:sodipodi="http://sodipodi.sourceforge.net/DTD/sodipodi-0.dtd"
   xmlns="http://www.w3.org/2000/svg"
   xmlns:svg="http://www.w3.org/2000/svg">
  <defs
     id="defs8" />
  <sodipodi:namedview
     id="namedview6"
     pagecolor="#ffffff"
     bordercolor="#666666"
     borderopacity="1.0"
     inkscape:pageshadow="2"
     inkscape:pageopacity="0.0"
     inkscape:pagecheckerboard="0"
     showgrid="false"
     inkscape:zoom="0.81152344"
     inkscape:cx="512"
     inkscape:cy="512.61613"
     inkscape:window-width="1920"
     inkscape:window-height="1017"
     inkscape:window-x="-8"
     inkscape:window-y="-8"
     inkscape:window-maximized="1"
     inkscape:current-layer="svg4" />
  <path
     d="M880 112H144c-17.7 0-32 14.3-32 32v736c0 17.7 14.3 32 32 32h736c17.7 0 32-14.3 32-32V144c0-17.7-14.3-32-32-32zM513.1 518.1l-192 161c-5.2 4.4-13.1.7-13.1-6.1v-62.7c0-2.3 1.1-4.6 2.9-6.1L420.7 512l-109.8-92.2a7.63 7.63 0 0 1-2.9-6.1V351c0-6.8 7.9-10.5 13.1-6.1l192 160.9c3.9 3.2 3.9 9.1 0 12.3zM716 673c0 4.4-3.4 8-7.5 8h-185c-4.1 0-7.5-3.6-7.5-8v-48c0-4.4 3.4-8 7.5-8h185c4.1 0 7.5 3.6 7.5 8v48z"
     id="path2"
     style="fill:#d4d4d4;fill-opacity:1.0" />
</svg>
