<?xml version="1.0" encoding="UTF-8" standalone="no"?>
<svg
   height="533.33331"
   width="533.33331"
   viewBox="-37.5 -62.5 144.44444 249.99999"
   version="1.1"
   id="svg8"
   sodipodi:docname="tiktok.svg"
   inkscape:version="1.4 (86a8ad7, 2024-10-11)"
   xmlns:inkscape="http://www.inkscape.org/namespaces/inkscape"
   xmlns:sodipodi="http://sodipodi.sourceforge.net/DTD/sodipodi-0.dtd"
   xmlns="http://www.w3.org/2000/svg"
   xmlns:svg="http://www.w3.org/2000/svg">
  <defs
     id="defs8" />
  <sodipodi:namedview
     id="namedview8"
     pagecolor="#ffffff"
     bordercolor="#000000"
     borderopacity="0.25"
     inkscape:showpageshadow="2"
     inkscape:pageopacity="0.0"
     inkscape:pagecheckerboard="0"
     inkscape:deskcolor="#d1d1d1"
     inkscape:zoom="0.78223688"
     inkscape:cx="126.56013"
     inkscape:cy="327.90579"
     inkscape:window-width="1920"
     inkscape:window-height="1129"
     inkscape:window-x="-8"
     inkscape:window-y="-8"
     inkscape:window-maximized="1"
     inkscape:current-layer="svg8" />
  <g
     id="g8"
     transform="translate(-90.27778,-62.500005)">
    <path
       clip-rule="evenodd"
       d="m 25,0 h 200 c 13.808,0 25,11.192 25,25 v 200 c 0,13.808 -11.192,25 -25,25 H 25 C 11.192,250 0,238.808 0,225 V 25 C 0,11.192 11.192,0 25,0 Z"
       fill-rule="evenodd"
       fill="#010101"
       id="path1" />
    <path
       clip-rule="evenodd"
       d="m 156.98,230 c 7.607,0 13.774,-6.117 13.774,-13.662 0,-7.545 -6.167,-13.663 -13.774,-13.663 h -2.075 c 7.607,0 13.774,6.118 13.774,13.663 0,7.545 -6.167,13.662 -13.774,13.662 z"
       fill-rule="evenodd"
       fill="#ee1d51"
       id="path2" />
    <path
       clip-rule="evenodd"
       d="m 154.717,202.675 h -2.075 c -7.607,0 -13.775,6.118 -13.775,13.663 0,7.545 6.168,13.662 13.775,13.662 h 2.075 c -7.608,0 -13.775,-6.117 -13.775,-13.662 0,-7.545 6.167,-13.663 13.775,-13.663 z"
       fill-rule="evenodd"
       fill="#66c8cf"
       id="path3" />
    <ellipse
       ry="6.6430001"
       rx="6.6989999"
       clip-rule="evenodd"
       fill-rule="evenodd"
       fill="#010101"
       cy="216.338"
       cx="154.811"
       id="ellipse3" />
    <path
       clip-rule="evenodd"
       d="m 50,196.5 v 6.925 h 8.112 v 26.388 h 8.115 v -26.201 h 6.603 l 2.264,-7.112 z m 66.415,0 v 6.925 h 8.112 v 26.388 h 8.115 v -26.201 h 6.603 l 2.264,-7.112 z m -39.81,3.93 c 0,-2.17 1.771,-3.93 3.959,-3.93 2.19,0 3.963,1.76 3.963,3.93 0,2.17 -1.772,3.93 -3.963,3.93 -2.188,-0.001 -3.959,-1.76 -3.959,-3.93 z m 0,6.738 h 7.922 v 22.645 H 76.605 Z M 87.924,196.5 v 33.313 h 7.925 v -8.608 l 2.453,-2.248 7.735,11.043 h 8.49 l -11.133,-16.095 10,-9.733 h -9.622 l -7.923,7.86 V 196.5 Z m 85.47,0 v 33.313 h 7.926 v -8.608 l 2.452,-2.248 7.737,11.043 H 200 l -11.133,-16.095 10,-9.733 h -9.622 l -7.925,7.86 V 196.5 Z"
       fill-rule="evenodd"
       fill="#ffffff"
       id="path4" />
    <path
       clip-rule="evenodd"
       d="m 161.167,81.186 c 10.944,7.819 24.352,12.42 38.832,12.42 V 65.755 a 39.26,39.26 0 0 1 -8.155,-0.853 v 21.923 c -14.479,0 -27.885,-4.601 -38.832,-12.42 v 56.835 c 0,28.432 -23.06,51.479 -51.505,51.479 -10.613,0 -20.478,-3.207 -28.673,-8.707 9.353,9.558 22.396,15.488 36.826,15.488 28.447,0 51.508,-23.047 51.508,-51.48 V 81.186 Z m 10.06,-28.098 c -5.593,-6.107 -9.265,-14 -10.06,-22.726 V 26.78 h -7.728 c 1.945,11.09 8.58,20.565 17.788,26.308 z m -80.402,99.107 a 23.445,23.445 0 0 1 -4.806,-14.256 c 0,-13.004 10.548,-23.547 23.561,-23.547 a 23.6,23.6 0 0 1 7.147,1.103 V 87.022 a 51.97,51.97 0 0 0 -8.152,-0.469 v 22.162 a 23.619,23.619 0 0 0 -7.15,-1.103 c -13.013,0 -23.56,10.543 -23.56,23.548 0,9.195 5.272,17.157 12.96,21.035 z"
       fill-rule="evenodd"
       fill="#ee1d52"
       id="path5" />
    <path
       clip-rule="evenodd"
       d="m 153.012,74.405 c 10.947,7.819 24.353,12.42 38.832,12.42 V 64.902 C 183.762,63.182 176.607,58.96 171.227,53.088 162.019,47.345 155.384,37.87 153.439,26.78 H 133.14 v 111.239 c -0.046,12.968 -10.576,23.468 -23.561,23.468 -7.652,0 -14.45,-3.645 -18.755,-9.292 -7.688,-3.878 -12.96,-11.84 -12.96,-21.035 0,-13.005 10.547,-23.548 23.56,-23.548 2.493,0 4.896,0.388 7.15,1.103 V 86.553 c -27.945,0.577 -50.42,23.399 -50.42,51.467 0,14.011 5.597,26.713 14.68,35.993 8.195,5.5 18.06,8.707 28.673,8.707 28.445,0 51.505,-23.048 51.505,-51.479 z"
       fill-rule="evenodd"
       fill="#ffffff"
       id="path6" />
    <path
       clip-rule="evenodd"
       d="m 191.844,64.902 v -5.928 a 38.84,38.84 0 0 1 -20.617,-5.887 38.948,38.948 0 0 0 20.617,11.815 z M 153.439,26.78 a 39.524,39.524 0 0 1 -0.427,-3.198 V 20 h -28.028 v 111.24 c -0.045,12.967 -10.574,23.467 -23.56,23.467 -3.813,0 -7.412,-0.904 -10.6,-2.512 4.305,5.647 11.103,9.292 18.755,9.292 12.984,0 23.515,-10.5 23.561,-23.468 V 26.78 Z m -44.864,59.773 v -6.311 a 51.97,51.97 0 0 0 -7.067,-0.479 C 73.06,79.763 50,102.811 50,131.24 c 0,17.824 9.063,33.532 22.835,42.772 -9.083,-9.28 -14.68,-21.982 -14.68,-35.993 0,-28.067 22.474,-50.889 50.42,-51.466 z"
       fill-rule="evenodd"
       fill="#69c9d0"
       id="path7" />
    <path
       clip-rule="evenodd"
       d="m 154.904,230 c 7.607,0 13.775,-6.117 13.775,-13.662 0,-7.545 -6.168,-13.663 -13.775,-13.663 h -0.188 c -7.607,0 -13.774,6.118 -13.774,13.663 0,7.545 6.167,13.662 13.774,13.662 z m -6.792,-13.662 c 0,-3.67 3,-6.643 6.7,-6.643 3.697,0 6.697,2.973 6.697,6.643 0,3.67 -3,6.645 -6.697,6.645 -3.7,-0.001 -6.7,-2.975 -6.7,-6.645 z"
       fill-rule="evenodd"
       fill="#ffffff"
       id="path8" />
  </g>
</svg>
