<?xml version="1.0" encoding="UTF-8" standalone="no"?>
<svg
   xmlns:dc="http://purl.org/dc/elements/1.1/"
   xmlns:cc="http://creativecommons.org/ns#"
   xmlns:rdf="http://www.w3.org/1999/02/22-rdf-syntax-ns#"
   xmlns:svg="http://www.w3.org/2000/svg"
   xmlns="http://www.w3.org/2000/svg"
   xmlns:sodipodi="http://sodipodi.sourceforge.net/DTD/sodipodi-0.dtd"
   xmlns:inkscape="http://www.inkscape.org/namespaces/inkscape"
   version="1.1"
   id="Layer_1"
   x="0px"
   y="0px"
   viewBox="0 0 512 512"
   enable-background="new 0 0 512 512"
   xml:space="preserve"
   sodipodi:docname="video.svg"
   inkscape:version="0.92.1 r15371"><metadata
   id="metadata9"><rdf:RDF><cc:Work
       rdf:about=""><dc:format>image/svg+xml</dc:format><dc:type
         rdf:resource="http://purl.org/dc/dcmitype/StillImage" /></cc:Work></rdf:RDF></metadata><defs
   id="defs7" /><sodipodi:namedview
   pagecolor="#ffffff"
   bordercolor="#666666"
   borderopacity="1"
   objecttolerance="10"
   gridtolerance="10"
   guidetolerance="10"
   inkscape:pageopacity="0"
   inkscape:pageshadow="2"
   inkscape:window-width="1920"
   inkscape:window-height="1017"
   id="namedview5"
   showgrid="false"
   inkscape:zoom="0.4609375"
   inkscape:cx="256"
   inkscape:cy="256"
   inkscape:window-x="-8"
   inkscape:window-y="-8"
   inkscape:window-maximized="1"
   inkscape:current-layer="Layer_1" />
<path
   d="M395.6,69.8L325.8,0h-58.2l69.8,69.8H395.6z M23.3,0H0v69.8h93.1L23.3,0z M244.4,69.8L174.5,0h-58.2l69.8,69.8H244.4z   M418.9,162.9h-93.1l69.8-69.8h-58.2l-69.8,69.8h-93.1l69.8-69.8h-58.2l-69.8,69.8H23.3l69.8-69.8H0v372.4  C0,491.1,20.9,512,46.5,512h418.9c25.7,0,46.5-20.9,46.5-46.5V93.1h-23.3L418.9,162.9z M186.2,442.2V232.7l186.2,104.7L186.2,442.2z   M418.9,0l69.8,69.8H512V0H418.9z"
   id="path2"
   style="fill:#d4d4d4;fill-opacity:1" />
</svg>