<?xml version="1.0" encoding="UTF-8" standalone="no"?>
<svg
   version="1.1"
   id="Layer_1"
   x="0px"
   y="0px"
   viewBox="0 0 512 512"
   enable-background="new 0 0 512 512"
   xml:space="preserve"
   sodipodi:docname="video.svg"
   inkscape:version="1.3.2 (091e20e, 2023-11-25, custom)"
   xmlns:inkscape="http://www.inkscape.org/namespaces/inkscape"
   xmlns:sodipodi="http://sodipodi.sourceforge.net/DTD/sodipodi-0.dtd"
   xmlns="http://www.w3.org/2000/svg"
   xmlns:svg="http://www.w3.org/2000/svg"
   xmlns:rdf="http://www.w3.org/1999/02/22-rdf-syntax-ns#"
   xmlns:cc="http://creativecommons.org/ns#"
   xmlns:dc="http://purl.org/dc/elements/1.1/"><metadata
   id="metadata9"><rdf:RDF><cc:Work
       rdf:about=""><dc:format>image/svg+xml</dc:format><dc:type
         rdf:resource="http://purl.org/dc/dcmitype/StillImage" /></cc:Work></rdf:RDF></metadata><defs
   id="defs7" /><sodipodi:namedview
   pagecolor="#ffffff"
   bordercolor="#666666"
   borderopacity="1"
   objecttolerance="10"
   gridtolerance="10"
   guidetolerance="10"
   inkscape:pageopacity="0"
   inkscape:pageshadow="2"
   inkscape:window-width="1920"
   inkscape:window-height="1017"
   id="namedview5"
   showgrid="false"
   inkscape:zoom="0.65186406"
   inkscape:cx="85.907482"
   inkscape:cy="339.79477"
   inkscape:window-x="-8"
   inkscape:window-y="-8"
   inkscape:window-maximized="1"
   inkscape:current-layer="Layer_1"
   inkscape:showpageshadow="2"
   inkscape:pagecheckerboard="0"
   inkscape:deskcolor="#d1d1d1" />
<path
   d="M 392.32698,74.165605 324.16349,6.00212 h -56.83546 l 68.16349,68.163485 z M 28.755833,6.00212 H 6.00212 V 74.165605 H 96.919318 Z M 244.67197,74.165605 176.41084,6.00212 h -56.83546 l 68.16348,68.163485 z M 415.08069,165.0828 h -90.9172 L 392.32698,96.919318 H 335.49152 L 267.32803,165.0828 H 176.41084 L 244.57432,96.919318 H 187.73886 L 119.57538,165.0828 H 28.755833 L 96.919318,96.919318 H 6.00212 V 460.58811 c 0,24.99979 20.409984,45.40977 45.409771,45.40977 H 460.49046 c 25.09744,0 45.40976,-20.40998 45.40976,-45.40977 V 96.919318 H 483.14651 Z M 187.83651,437.8344 V 233.24629 l 181.8344,102.24523 z M 415.08069,6.00212 483.24417,74.165605 h 22.75371 V 6.00212 Z"
   id="path2"
   style="fill:#d4d4d4;fill-opacity:1;stroke-width:0.976554" />
</svg>
