<?xml version="1.0" encoding="UTF-8" standalone="no"?>
<!-- Generator: Adobe Illustrator 19.0.0, SVG Export Plug-In . SVG Version: 6.00 Build 0)  -->

<svg
   xmlns:dc="http://purl.org/dc/elements/1.1/"
   xmlns:cc="http://creativecommons.org/ns#"
   xmlns:rdf="http://www.w3.org/1999/02/22-rdf-syntax-ns#"
   xmlns:svg="http://www.w3.org/2000/svg"
   xmlns="http://www.w3.org/2000/svg"
   xmlns:sodipodi="http://sodipodi.sourceforge.net/DTD/sodipodi-0.dtd"
   xmlns:inkscape="http://www.inkscape.org/namespaces/inkscape"
   version="1.1"
   id="Layer_1"
   x="0px"
   y="0px"
   viewBox="0 0 512 512"
   style="enable-background:new 0 0 512 512;"
   xml:space="preserve"
   sodipodi:docname="website.svg"
   inkscape:version="0.92.1 r15371"><metadata
   id="metadata57"><rdf:RDF><cc:Work
       rdf:about=""><dc:format>image/svg+xml</dc:format><dc:type
         rdf:resource="http://purl.org/dc/dcmitype/StillImage" /><dc:title></dc:title></cc:Work></rdf:RDF></metadata><defs
   id="defs55">
	
</defs><sodipodi:namedview
   pagecolor="#ffffff"
   bordercolor="#666666"
   borderopacity="1"
   objecttolerance="10"
   gridtolerance="10"
   guidetolerance="10"
   inkscape:pageopacity="0"
   inkscape:pageshadow="2"
   inkscape:window-width="1920"
   inkscape:window-height="1017"
   id="namedview53"
   showgrid="false"
   inkscape:zoom="0.921875"
   inkscape:cx="232.71165"
   inkscape:cy="199.28402"
   inkscape:window-x="-8"
   inkscape:window-y="-8"
   inkscape:window-maximized="1"
   inkscape:current-layer="Layer_1" />
<rect
   style="opacity:1;fill:#ffffff;fill-opacity:1;fill-rule:nonzero;stroke-width:1.07506943"
   id="rect59"
   width="468.48111"
   height="469.02103"
   x="23.950895"
   y="22.788036" /><g
   id="g6203"
   style="fill:#c83737"><g
     transform="matrix(0.99972463,0,0,1.1560928,0.09305615,-39.915299)"
     id="g18"
     style="fill:#c83737">
		<g
   id="g16"
   style="fill:#c83737">
			<path
   d="M 472.178,34.62 H 39.822 C 17.864,34.62 0,52.484 0,74.442 0,92.397 0,419.676 0,437.558 0,459.516 17.864,477.38 39.822,477.38 h 432.356 c 21.958,0 39.822,-17.864 39.822,-39.822 0,-17.89 0,-345.167 0,-363.116 C 512,52.484 494.136,34.62 472.178,34.62 Z m 5.689,402.937 c 0,3.137 -2.552,5.689 -5.689,5.689 H 39.822 c -3.137,0 -5.689,-2.552 -5.689,-5.689 V 153.838 h 443.733 v 283.719 z m 0,-317.852 H 34.133 V 74.442 c 0,-3.137 2.552,-5.689 5.689,-5.689 h 432.356 c 3.137,0 5.689,2.552 5.689,5.689 z"
   id="path2"
   inkscape:connector-curvature="0"
   style="fill:#c83737" />
			<circle
   cx="71.805"
   cy="94.230003"
   r="12.836"
   id="circle4"
   style="fill:#c83737" />
			<circle
   cx="112.959"
   cy="94.230003"
   r="12.836"
   id="circle6"
   style="fill:#c83737" />
			<circle
   cx="154.112"
   cy="94.230003"
   r="12.836"
   id="circle8"
   style="fill:#c83737" />
			<path
   d="m 81.581,334.442 c 4.44,13.701 22.872,16.101 30.636,3.9 l 10.454,-16.432 10.454,16.432 c 7.744,12.169 26.195,9.801 30.636,-3.9 l 19.857,-61.278 c 2.906,-8.967 -2.008,-18.591 -10.975,-21.497 -8.971,-2.906 -18.591,2.009 -21.497,10.975 l -8.681,26.791 -5.393,-8.478 c -6.695,-10.52 -22.094,-10.538 -28.801,0 l -5.392,8.478 -8.681,-26.79 c -2.906,-8.966 -12.526,-13.882 -21.497,-10.975 -8.967,2.906 -13.88,12.529 -10.975,21.496 z"
   id="path10"
   inkscape:connector-curvature="0"
   style="fill:#c83737" />
			<path
   d="m 214.911,334.442 c 4.446,13.72 22.905,16.052 30.636,3.9 L 256,321.911 l 10.454,16.432 c 7.762,12.2 26.196,9.8 30.636,-3.9 l 19.855,-61.278 c 2.906,-8.967 -2.008,-18.59 -10.975,-21.496 -8.974,-2.907 -18.591,2.008 -21.497,10.975 l -8.681,26.79 -5.392,-8.478 c -6.695,-10.52 -22.094,-10.538 -28.801,0 l -5.392,8.478 -8.681,-26.79 c -2.905,-8.966 -12.527,-13.882 -21.496,-10.975 -8.967,2.906 -13.88,12.529 -10.975,21.496 z"
   id="path12"
   inkscape:connector-curvature="0"
   style="fill:#c83737" />
			<path
   d="m 348.241,334.442 c 4.446,13.72 22.905,16.051 30.636,3.9 l 10.454,-16.432 10.454,16.432 c 7.762,12.2 26.195,9.8 30.636,-3.9 l 19.855,-61.278 c 2.906,-8.967 -2.008,-18.59 -10.975,-21.496 -8.973,-2.907 -18.591,2.008 -21.496,10.975 l -8.681,26.79 -5.392,-8.478 c -6.695,-10.52 -22.095,-10.538 -28.801,0 l -5.393,8.478 -8.681,-26.791 c -2.906,-8.966 -12.531,-13.881 -21.497,-10.975 -8.967,2.906 -13.88,12.53 -10.974,21.497 z"
   id="path14"
   inkscape:connector-curvature="0"
   style="fill:#c83737" />
		</g>
	</g></g>
<g
   id="g22"
   transform="matrix(0.99972463,0,0,1.1560928,0.09305615,-39.915299)">
</g>
<g
   id="g24"
   transform="matrix(0.99972463,0,0,1.1560928,0.09305615,-39.915299)">
</g>
<g
   id="g26"
   transform="matrix(0.99972463,0,0,1.1560928,0.09305615,-39.915299)">
</g>
<g
   id="g28"
   transform="matrix(0.99972463,0,0,1.1560928,0.09305615,-39.915299)">
</g>
<g
   id="g30"
   transform="matrix(0.99972463,0,0,1.1560928,0.09305615,-39.915299)">
</g>
<g
   id="g32"
   transform="matrix(0.99972463,0,0,1.1560928,0.09305615,-39.915299)">
</g>
<g
   id="g34"
   transform="matrix(0.99972463,0,0,1.1560928,0.09305615,-39.915299)">
</g>
<g
   id="g36"
   transform="matrix(0.99972463,0,0,1.1560928,0.09305615,-39.915299)">
</g>
<g
   id="g38"
   transform="matrix(0.99972463,0,0,1.1560928,0.09305615,-39.915299)">
</g>
<g
   id="g40"
   transform="matrix(0.99972463,0,0,1.1560928,0.09305615,-39.915299)">
</g>
<g
   id="g42"
   transform="matrix(0.99972463,0,0,1.1560928,0.09305615,-39.915299)">
</g>
<g
   id="g44"
   transform="matrix(0.99972463,0,0,1.1560928,0.09305615,-39.915299)">
</g>
<g
   id="g46"
   transform="matrix(0.99972463,0,0,1.1560928,0.09305615,-39.915299)">
</g>
<g
   id="g48"
   transform="matrix(0.99972463,0,0,1.1560928,0.09305615,-39.915299)">
</g>
<g
   id="g50"
   transform="matrix(0.99972463,0,0,1.1560928,0.09305615,-39.915299)">
</g>
</svg>